<?xml version="1.0" encoding="utf-8" ?>
<svg xmlns="http://www.w3.org/2000/svg" xmlns:xlink="http://www.w3.org/1999/xlink" width="512" height="512">
	<path fill="#F4F1DE" d="M0 0L0 512L512 512L512 0L0 0Z"/>
	<path fill="#3D405B" d="M317.079 283.508L183.952 283.503C182.253 283.501 180.466 283.597 178.778 283.409C160.489 281.381 148.431 266.622 148.4 248.771L148.396 147.759C148.391 142.147 147.984 136.364 149.108 130.842C151.89 117.162 164.084 105.828 177.964 104.171C180.491 103.87 182.99 103.914 185.53 103.91L195.173 103.902L329.028 103.906C347.766 103.926 362.195 116.783 363.743 135.874C363.885 137.628 363.789 139.456 363.792 141.22L363.802 247.124C363.801 248.626 363.864 250.166 363.745 251.664C362.442 268.001 350.104 281.676 333.711 283.398C331.571 283.623 329.39 283.525 327.24 283.522L317.079 283.508ZM183.96 130.592C175.524 131.393 175.577 138.952 175.577 145.438L175.575 241.622C175.577 243.778 175.467 245.998 175.651 248.144C176.006 252.288 179.763 255.93 183.87 256.341C185.631 256.517 187.44 256.441 189.211 256.443L327.847 256.494C331.758 256.217 336.201 252.81 336.518 248.658C336.686 246.457 336.548 244.135 336.545 241.922L336.559 143.711C336.567 141.877 336.709 139.935 336.53 138.111C336.152 134.251 332.363 130.969 328.574 130.649C326.53 130.476 324.41 130.579 322.357 130.578L183.96 130.592Z"/>
	<path fill="#3D405B" d="M295.279 229.86L292.138 232.722C291.689 233.133 291.443 233.636 290.873 233.898L299.199 233.9C300.387 233.897 302.035 233.688 303.164 233.983C305.578 234.616 306.63 241.022 301.466 240.913L279.643 240.818C274.823 240.651 274.873 242.76 272.125 242.946C270.126 243.083 268.04 242.975 266.032 242.974L244.739 242.97C242.957 242.968 239.22 243.341 237.615 242.656C236.537 242.196 235.176 240.893 234.029 240.857L211.223 240.905C204.887 240.977 206.208 235.324 209.057 234.183L209.225 234.119C210.447 233.643 212.348 233.887 213.667 233.888L220.732 233.795C220.307 233.566 217.216 230.727 216.464 230.107C213.636 227.778 211.327 225.074 209.279 222.045C208.687 221.17 208.054 219.837 207.305 219.134L196.674 219.345C194.527 219.464 192.821 218.132 192.796 215.883C192.755 212.172 195.116 212.237 197.665 212.248L203.62 212.278C203.322 211.906 203.278 211.383 203.166 210.928L202.306 206.647C202.287 206.537 202.2 205.842 202.149 205.787C201.796 205.408 195.742 205.812 194.611 205.503C191.098 204.542 191.447 198.923 194.77 198.087C195.408 197.926 196.333 198.057 197.002 198.069L200.67 198.062C200.541 196.728 200.589 195.358 200.587 194.017L200.678 187.327C200.856 182.567 201.191 184.081 199.286 179.719L197.383 174.759C195.18 168.274 191.438 151.151 193.631 144.878C194.231 144.32 194.585 144.222 195.397 144.101C196.635 144.124 197.957 144.089 199.173 144.312L204.602 145.097C213.537 146.783 221.525 150.858 228.513 156.584C229.649 157.514 229.508 157.803 230.8 157.212L237.523 154.36C249.609 150.159 263.154 150.412 275.175 154.689L281.196 157.209C282.193 157.703 282.279 157.217 283.176 156.556C292.037 150.025 301.198 145.452 312.392 144.596C318.987 144.092 318.891 143.565 318.896 150.202C318.904 159.854 316.866 171.685 312.526 180.466C311.598 182.345 310.816 182.923 310.833 185.087L310.853 187.872C310.876 191.263 310.985 194.712 310.756 198.096L314.215 198.102C315.864 198.111 317.63 197.937 318.884 199.237C320.296 200.701 320.12 203.597 318.629 204.943C317.33 206.116 315.169 205.753 313.558 205.695L309.513 205.514L308.616 209.495C308.435 210.38 308.306 211.311 308.011 212.166L307.977 212.262C308.774 212.354 309.638 212.28 310.442 212.274L315.149 212.252C320.665 212.31 319.945 218.605 316.927 219.122C314.732 219.499 306.532 219.188 304.455 218.962C303.883 219.352 303.794 219.758 303.419 220.299L301.456 222.991C299.598 225.463 297.48 227.694 295.279 229.86Z"/>
	<path fill="#E07A5F" d="M76.8738 423.294C73.4258 423.294 70.6576 422.213 68.5694 420.052C66.4812 417.891 65.2914 415.038 65 411.493L71.4832 409.526C71.8717 412.197 72.5273 414.2 73.45 415.536C74.3728 416.871 75.7325 417.539 77.5294 417.539C78.9377 417.539 80.0061 417.138 80.7346 416.337C81.463 415.536 81.8272 414.455 81.8272 413.095C81.8272 411.881 81.5601 410.789 81.0259 409.817C80.4918 408.846 79.6176 407.85 78.4035 406.831L71.1918 400.639C69.7349 399.376 68.5087 397.968 67.5132 396.414C66.5176 394.86 66.0198 392.844 66.0198 390.368C66.0198 388.134 66.469 386.252 67.3675 384.722C68.2659 383.192 69.5285 382.027 71.1554 381.226C72.7823 380.424 74.6884 380.024 76.8738 380.024C80.3703 380.024 83.0413 381.104 84.8867 383.265C86.7321 385.426 87.8005 388.037 88.0919 391.096L82.5557 393.063C82.3614 391.606 82.07 390.331 81.6815 389.239C81.2931 388.146 80.7346 387.296 80.0061 386.689C79.2776 386.082 78.3307 385.778 77.1651 385.778C75.9025 385.778 74.8948 386.203 74.1421 387.053C73.3894 387.903 73.013 388.911 73.013 390.076C73.013 390.805 73.1708 391.521 73.4865 392.225C73.8021 392.929 74.3484 393.621 75.1255 394.301L82.5557 401.149C83.5755 402.071 84.5347 403.067 85.4331 404.135C86.3315 405.204 87.0721 406.418 87.6548 407.778C88.2376 409.137 88.529 410.716 88.529 412.513C88.529 414.892 88.0433 416.883 87.0721 418.486C86.1008 420.088 84.741 421.29 82.9928 422.092C81.2445 422.893 79.2048 423.294 76.8738 423.294ZM100.694 423.294C99.0429 423.294 97.586 422.82 96.3234 421.873C95.0608 420.926 94.0652 419.712 93.3368 418.231C92.6083 416.75 92.2441 415.184 92.2441 413.532C92.2441 410.91 92.6812 408.7 93.5553 406.904C94.4294 405.107 95.6314 403.589 97.1611 402.351C98.6909 401.112 100.463 400.032 102.479 399.109C104.494 398.186 106.619 397.288 108.853 396.414L108.853 393.427C108.853 391.727 108.756 390.319 108.561 389.202C108.367 388.085 107.966 387.247 107.359 386.689C106.752 386.13 105.842 385.851 104.628 385.851C103.559 385.851 102.697 386.094 102.042 386.58C101.386 387.065 100.913 387.757 100.621 388.656C100.33 389.554 100.184 390.61 100.184 391.825L100.184 393.937L92.4626 393.646C92.5597 388.984 93.6281 385.548 95.6678 383.338C97.7075 381.128 100.864 380.024 105.138 380.024C109.314 380.024 112.277 381.165 114.025 383.447C115.773 385.73 116.647 389.032 116.647 393.354L116.647 412.585C116.647 413.897 116.684 415.159 116.756 416.373C116.829 417.587 116.926 418.717 117.048 419.761C117.169 420.805 117.279 421.788 117.376 422.711L110.237 422.711C110.091 421.934 109.909 420.95 109.69 419.761C109.472 418.571 109.314 417.49 109.217 416.519C108.731 418.17 107.797 419.712 106.412 421.145C105.028 422.577 103.122 423.294 100.694 423.294ZM103.754 416.592C104.531 416.592 105.259 416.373 105.939 415.936C106.619 415.499 107.226 415.001 107.76 414.443C108.294 413.884 108.659 413.435 108.853 413.095L108.853 401.149C107.639 401.829 106.497 402.509 105.429 403.188C104.361 403.868 103.426 404.585 102.625 405.337C101.823 406.09 101.192 406.94 100.731 407.887C100.269 408.834 100.039 409.914 100.039 411.129C100.039 412.828 100.354 414.164 100.986 415.135C101.617 416.106 102.54 416.592 103.754 416.592ZM124.369 422.711L124.369 380.606L132.163 380.606L132.163 386.58C133.717 384.006 135.271 382.282 136.825 381.408C138.379 380.534 139.934 380.096 141.487 380.096C141.682 380.096 141.864 380.096 142.034 380.096C142.203 380.096 142.434 380.121 142.726 380.169L142.726 388.765C142.143 388.522 141.475 388.316 140.723 388.146C139.97 387.976 139.205 387.891 138.428 387.891C137.214 387.891 136.109 388.17 135.113 388.729C134.118 389.287 133.134 390.368 132.163 391.97L132.163 422.711L124.369 422.711ZM153.215 423.294C151.564 423.294 150.107 422.82 148.845 421.873C147.582 420.926 146.587 419.712 145.858 418.231C145.13 416.75 144.765 415.184 144.765 413.532C144.765 410.91 145.203 408.7 146.077 406.904C146.951 405.107 148.153 403.589 149.682 402.351C151.212 401.112 152.985 400.032 155 399.109C157.016 398.186 159.14 397.288 161.374 396.414L161.374 393.427C161.374 391.727 161.277 390.319 161.083 389.202C160.888 388.085 160.488 387.247 159.881 386.689C159.274 386.13 158.363 385.851 157.149 385.851C156.08 385.851 155.219 386.094 154.563 386.58C153.908 387.065 153.434 387.757 153.143 388.656C152.851 389.554 152.706 390.61 152.706 391.825L152.706 393.937L144.984 393.646C145.081 388.984 146.149 385.548 148.189 383.338C150.229 381.128 153.385 380.024 157.659 380.024C161.835 380.024 164.798 381.165 166.546 383.447C168.294 385.73 169.169 389.032 169.169 393.354L169.169 412.585C169.169 413.897 169.205 415.159 169.278 416.373C169.351 417.587 169.448 418.717 169.569 419.761C169.691 420.805 169.8 421.788 169.897 422.711L162.758 422.711C162.613 421.934 162.43 420.95 162.212 419.761C161.993 418.571 161.835 417.49 161.738 416.519C161.252 418.17 160.318 419.712 158.934 421.145C157.55 422.577 155.643 423.294 153.215 423.294ZM156.275 416.592C157.052 416.592 157.781 416.373 158.46 415.936C159.14 415.499 159.748 415.001 160.281 414.443C160.815 413.884 161.18 413.435 161.374 413.095L161.374 401.149C160.16 401.829 159.019 402.509 157.95 403.188C156.882 403.868 155.947 404.585 155.146 405.337C154.345 406.09 153.713 406.94 153.252 407.887C152.791 408.834 152.56 409.914 152.56 411.129C152.56 412.828 152.875 414.164 153.507 415.135C154.138 416.106 155.061 416.592 156.275 416.592ZM176.89 422.711L176.89 363.706L184.685 363.706L184.685 384.977C186.093 383.617 187.671 382.452 189.42 381.481C191.168 380.509 193.111 380.024 195.247 380.024C196.899 380.024 198.173 380.461 199.071 381.335C199.97 382.209 200.601 383.302 200.965 384.613C201.33 385.924 201.512 387.26 201.512 388.619L201.512 422.711L193.717 422.711L193.717 390.878C193.717 389.372 193.499 388.207 193.062 387.381C192.625 386.555 191.727 386.143 190.367 386.143C189.444 386.143 188.485 386.41 187.489 386.944C186.493 387.478 185.559 388.134 184.685 388.911L184.685 422.711L176.89 422.711ZM225.988 422.711L225.988 363.706L233.782 363.706L233.782 384.977C235.19 383.617 236.769 382.452 238.517 381.481C240.265 380.509 242.208 380.024 244.345 380.024C245.996 380.024 247.271 380.461 248.169 381.335C249.067 382.209 249.699 383.302 250.063 384.613C250.427 385.924 250.609 387.26 250.609 388.619L250.609 422.711L242.815 422.711L242.815 390.878C242.815 389.372 242.596 388.207 242.159 387.381C241.722 386.555 240.824 386.143 239.464 386.143C238.541 386.143 237.583 386.41 236.587 386.944C235.591 387.478 234.656 388.134 233.782 388.911L233.782 422.711L225.988 422.711ZM264.231 423.294C262.58 423.294 261.294 422.857 260.371 421.982C259.448 421.108 258.805 420.016 258.44 418.704C258.076 417.393 257.894 416.058 257.894 414.698L257.894 380.606L265.688 380.606L265.688 412.367C265.688 413.872 265.907 415.05 266.344 415.9C266.781 416.75 267.679 417.175 269.039 417.175C269.913 417.175 270.824 416.92 271.771 416.41C272.718 415.9 273.629 415.281 274.503 414.552L274.503 380.606L282.297 380.606L282.297 422.711L274.503 422.711L274.503 418.559C273.143 419.87 271.601 420.987 269.877 421.91C268.153 422.832 266.271 423.294 264.231 423.294ZM301.892 423.294C298.59 423.294 296.041 422.65 294.244 421.363C292.447 420.076 291.197 418.182 290.492 415.681C289.788 413.18 289.436 410.109 289.436 406.466L289.436 396.851C289.436 393.112 289.8 390.003 290.529 387.527C291.257 385.05 292.532 383.18 294.353 381.918C296.174 380.655 298.687 380.024 301.892 380.024C305.438 380.024 308.048 380.752 309.723 382.209C311.399 383.666 312.504 385.766 313.038 388.51C313.572 391.254 313.839 394.544 313.839 398.381L313.839 401.804L297.23 401.804L297.23 410.254C297.23 411.954 297.388 413.338 297.704 414.407C298.019 415.475 298.529 416.264 299.234 416.774C299.938 417.284 300.849 417.539 301.965 417.539C303.131 417.539 304.017 417.26 304.624 416.701C305.231 416.143 305.644 415.341 305.862 414.297C306.081 413.253 306.19 412.027 306.19 410.619L306.19 408.069L313.766 408.069L313.766 409.672C313.766 413.897 312.868 417.223 311.071 419.651C309.274 422.08 306.214 423.294 301.892 423.294ZM297.23 397.579L306.19 397.579L306.19 393.791C306.19 392.043 306.093 390.574 305.899 389.384C305.704 388.194 305.304 387.296 304.697 386.689C304.09 386.082 303.131 385.778 301.82 385.778C300.557 385.778 299.598 386.07 298.942 386.653C298.287 387.235 297.837 388.219 297.595 389.603C297.352 390.987 297.23 392.893 297.23 395.321L297.23 397.579ZM332.123 423.294C329.938 423.294 328.177 422.881 326.842 422.055C325.507 421.23 324.535 420.064 323.928 418.559C323.321 417.053 323.018 415.281 323.018 413.241L323.018 385.778L318.574 385.778L318.574 380.606L323.018 380.606L323.018 368.296L330.812 368.296L330.812 380.606L337.587 380.606L337.587 385.778L330.812 385.778L330.812 412.731C330.812 414.382 331.079 415.56 331.613 416.264C332.147 416.968 333.167 417.32 334.673 417.32C335.061 417.32 335.51 417.296 336.02 417.248C336.53 417.199 337.028 417.15 337.514 417.102L337.514 422.857C336.543 423.002 335.644 423.112 334.818 423.184C333.993 423.257 333.094 423.294 332.123 423.294ZM354.559 423.294C352.374 423.294 350.613 422.881 349.278 422.055C347.943 421.23 346.971 420.064 346.364 418.559C345.758 417.053 345.454 415.281 345.454 413.241L345.454 385.778L341.01 385.778L341.01 380.606L345.454 380.606L345.454 368.296L353.248 368.296L353.248 380.606L360.023 380.606L360.023 385.778L353.248 385.778L353.248 412.731C353.248 414.382 353.516 415.56 354.05 416.264C354.584 416.968 355.603 417.32 357.109 417.32C357.497 417.32 357.947 417.296 358.457 417.248C358.967 417.199 359.464 417.15 359.95 417.102L359.95 422.857C358.979 423.002 358.08 423.112 357.255 423.184C356.429 423.257 355.53 423.294 354.559 423.294ZM365.778 422.711L365.778 380.606L373.572 380.606L373.572 384.759C374.98 383.447 376.535 382.33 378.234 381.408C379.934 380.485 381.804 380.024 383.843 380.024C385.543 380.024 386.842 380.461 387.74 381.335C388.639 382.209 389.27 383.302 389.634 384.613C389.999 385.924 390.181 387.26 390.181 388.619L390.181 422.711L382.386 422.711L382.386 390.878C382.386 389.372 382.168 388.207 381.731 387.381C381.294 386.555 380.395 386.143 379.035 386.143C378.161 386.143 377.251 386.398 376.304 386.908C375.357 387.417 374.446 388.037 373.572 388.765L373.572 422.711L365.778 422.711ZM409.412 423.294C406.11 423.294 403.56 422.65 401.763 421.363C399.966 420.076 398.716 418.182 398.012 415.681C397.307 413.18 396.955 410.109 396.955 406.466L396.955 396.851C396.955 393.112 397.32 390.003 398.048 387.527C398.776 385.05 400.051 383.18 401.872 381.918C403.694 380.655 406.207 380.024 409.412 380.024C412.957 380.024 415.567 380.752 417.243 382.209C418.918 383.666 420.023 385.766 420.557 388.51C421.091 391.254 421.358 394.544 421.358 398.381L421.358 401.804L404.75 401.804L404.75 410.254C404.75 411.954 404.908 413.338 405.223 414.407C405.539 415.475 406.049 416.264 406.753 416.774C407.457 417.284 408.368 417.539 409.485 417.539C410.65 417.539 411.537 417.26 412.144 416.701C412.75 416.143 413.163 415.341 413.382 414.297C413.6 413.253 413.71 412.027 413.71 410.619L413.71 408.069L421.286 408.069L421.286 409.672C421.286 413.897 420.387 417.223 418.59 419.651C416.793 422.08 413.734 423.294 409.412 423.294ZM404.75 397.579L413.71 397.579L413.71 393.791C413.71 392.043 413.613 390.574 413.418 389.384C413.224 388.194 412.823 387.296 412.216 386.689C411.61 386.082 410.65 385.778 409.339 385.778C408.077 385.778 407.117 386.07 406.462 386.653C405.806 387.235 405.357 388.219 405.114 389.603C404.871 390.987 404.75 392.893 404.75 395.321L404.75 397.579ZM428.643 422.711L428.643 380.606L436.437 380.606L436.437 386.58C437.991 384.006 439.546 382.282 441.1 381.408C442.653 380.534 444.208 380.096 445.762 380.096C445.956 380.096 446.138 380.096 446.308 380.096C446.478 380.096 446.709 380.121 447 380.169L447 388.765C446.417 388.522 445.749 388.316 444.997 388.146C444.244 387.976 443.479 387.891 442.702 387.891C441.488 387.891 440.383 388.17 439.388 388.729C438.392 389.287 437.408 390.368 436.437 391.97L436.437 422.711L428.643 422.711Z"/>
</svg>
